<svg width="219" height="47" viewBox="0 0 219 47" fill="none" xmlns="http://www.w3.org/2000/svg">
<path d="M13 37.5C10.6667 37.5 8.56667 37.2167 6.7 36.65C4.83333 36.05 3.05 35.0167 1.35 33.55C0.916667 33.1833 0.583333 32.7667 0.35 32.3C0.116667 31.8333 1.41561e-07 31.3667 1.41561e-07 30.9C1.41561e-07 30.1333 0.266667 29.4667 0.8 28.9C1.36667 28.3 2.06667 28 2.9 28C3.53333 28 4.1 28.2 4.6 28.6C5.86667 29.6333 7.11667 30.4167 8.35 30.95C9.61667 31.4833 11.1667 31.75 13 31.75C14.2333 31.75 15.3667 31.5667 16.4 31.2C17.4333 30.8 18.2667 30.2833 18.9 29.65C19.5333 28.9833 19.85 28.2333 19.85 27.4C19.85 26.4 19.55 25.55 18.95 24.85C18.35 24.15 17.4333 23.5667 16.2 23.1C14.9667 22.6 13.4 22.2167 11.5 21.95C9.7 21.6833 8.11667 21.2833 6.75 20.75C5.38333 20.1833 4.23333 19.4833 3.3 18.65C2.4 17.7833 1.71667 16.7833 1.25 15.65C0.783334 14.4833 0.55 13.1833 0.55 11.75C0.55 9.58333 1.1 7.73333 2.2 6.2C3.33333 4.66666 4.85 3.5 6.75 2.7C8.65 1.9 10.75 1.5 13.05 1.5C15.2167 1.5 17.2167 1.83333 19.05 2.5C20.9167 3.13333 22.4333 3.95 23.6 4.95C24.5667 5.71667 25.05 6.6 25.05 7.6C25.05 8.33333 24.7667 9 24.2 9.6C23.6333 10.2 22.9667 10.5 22.2 10.5C21.7 10.5 21.25 10.35 20.85 10.05C20.3167 9.58333 19.6 9.15 18.7 8.75C17.8 8.31667 16.85 7.96667 15.85 7.7C14.85 7.4 13.9167 7.25 13.05 7.25C11.6167 7.25 10.4 7.43333 9.4 7.8C8.43333 8.16667 7.7 8.66667 7.2 9.3C6.7 9.93333 6.45 10.6667 6.45 11.5C6.45 12.5 6.73333 13.3333 7.3 14C7.9 14.6333 8.75 15.15 9.85 15.55C10.95 15.9167 12.2667 16.25 13.8 16.55C15.8 16.9167 17.55 17.35 19.05 17.85C20.5833 18.35 21.85 19 22.85 19.8C23.85 20.5667 24.6 21.55 25.1 22.75C25.6 23.9167 25.85 25.35 25.85 27.05C25.85 29.2167 25.25 31.0833 24.05 32.65C22.85 34.2167 21.2667 35.4167 19.3 36.25C17.3667 37.0833 15.2667 37.5 13 37.5ZM36.734 33.95C36.734 34.8167 36.4507 35.55 35.884 36.15C35.3173 36.7167 34.6007 37 33.734 37C32.8673 37 32.1507 36.7167 31.584 36.15C31.0173 35.55 30.734 34.8167 30.734 33.95V13.3C30.734 12.4333 31.0173 11.7167 31.584 11.15C32.1507 10.55 32.8673 10.25 33.734 10.25C34.6007 10.25 35.3173 10.55 35.884 11.15C36.4507 11.7167 36.734 12.4333 36.734 13.3V33.95ZM33.684 7C32.5507 7 31.7507 6.81667 31.284 6.45C30.8173 6.08333 30.584 5.43333 30.584 4.5V3.55C30.584 2.58333 30.834 1.93333 31.334 1.6C31.8673 1.23333 32.6673 1.05 33.734 1.05C34.9007 1.05 35.7173 1.23333 36.184 1.6C36.6507 1.96667 36.884 2.61667 36.884 3.55V4.5C36.884 5.46666 36.634 6.13333 36.134 6.5C35.634 6.83333 34.8173 7 33.684 7ZM59.0504 2C62.2504 2 64.6337 2.75 66.2004 4.25C67.7671 5.75 68.5504 7.96667 68.5504 10.9C68.5504 12.4667 68.1671 13.85 67.4004 15.05C66.6337 16.2167 65.5004 17.1333 64.0004 17.8C62.5004 18.4333 60.6504 18.75 58.4504 18.75L58.6504 16.5C59.6837 16.5 60.8671 16.65 62.2004 16.95C63.5337 17.2167 64.8171 17.7167 66.0504 18.45C67.3171 19.15 68.3504 20.15 69.1504 21.45C69.9837 22.7167 70.4004 24.35 70.4004 26.35C70.4004 28.55 70.0337 30.35 69.3004 31.75C68.6004 33.15 67.6671 34.2333 66.5004 35C65.3337 35.7667 64.0837 36.3 62.7504 36.6C61.4171 36.8667 60.1337 37 58.9004 37H46.4504C45.5837 37 44.8504 36.7167 44.2504 36.15C43.6837 35.55 43.4004 34.8167 43.4004 33.95V5.05C43.4004 4.18333 43.6837 3.46667 44.2504 2.9C44.8504 2.3 45.5837 2 46.4504 2H59.0504ZM58.1504 7.9H49.2504L49.9004 7.1V16.15L49.3004 15.7H58.3004C59.2671 15.7 60.1337 15.3833 60.9004 14.75C61.6671 14.1167 62.0504 13.2 62.0504 12C62.0504 10.5667 61.6837 9.53333 60.9504 8.9C60.2504 8.23333 59.3171 7.9 58.1504 7.9ZM58.5504 21.6H49.4504L49.9004 21.2V31.75L49.4004 31.25H58.9004C60.4337 31.25 61.6504 30.85 62.5504 30.05C63.4504 29.2167 63.9004 27.9833 63.9004 26.35C63.9004 24.85 63.6004 23.7667 63.0004 23.1C62.4004 22.4333 61.6837 22.0167 60.8504 21.85C60.0171 21.6833 59.2504 21.6 58.5504 21.6ZM88.2152 37.5C85.3819 37.5 82.9152 36.9167 80.8152 35.75C78.7486 34.55 77.1486 32.9333 76.0152 30.9C74.9152 28.8667 74.3652 26.5667 74.3652 24C74.3652 21 74.9652 18.45 76.1652 16.35C77.3986 14.2167 78.9986 12.5833 80.9652 11.45C82.9319 10.3167 85.0152 9.75 87.2152 9.75C88.9152 9.75 90.5152 10.1 92.0152 10.8C93.5486 11.5 94.8986 12.4667 96.0652 13.7C97.2319 14.9 98.1486 16.3 98.8152 17.9C99.5152 19.5 99.8652 21.2 99.8652 23C99.8319 23.8 99.5152 24.45 98.9152 24.95C98.3152 25.45 97.6152 25.7 96.8152 25.7H77.7152L76.2152 20.7H94.5652L93.4652 21.7V20.35C93.3986 19.3833 93.0486 18.5167 92.4152 17.75C91.8152 16.9833 91.0486 16.3833 90.1152 15.95C89.2152 15.4833 88.2486 15.25 87.2152 15.25C86.2152 15.25 85.2819 15.3833 84.4152 15.65C83.5486 15.9167 82.7986 16.3667 82.1652 17C81.5319 17.6333 81.0319 18.4833 80.6652 19.55C80.2986 20.6167 80.1152 21.9667 80.1152 23.6C80.1152 25.4 80.4819 26.9333 81.2152 28.2C81.9819 29.4333 82.9486 30.3833 84.1152 31.05C85.3152 31.6833 86.5819 32 87.9152 32C89.1486 32 90.1319 31.9 90.8652 31.7C91.5986 31.5 92.1819 31.2667 92.6152 31C93.0819 30.7 93.4986 30.45 93.8652 30.25C94.4652 29.95 95.0319 29.8 95.5652 29.8C96.2986 29.8 96.8986 30.05 97.3652 30.55C97.8652 31.05 98.1152 31.6333 98.1152 32.3C98.1152 33.2 97.6486 34.0167 96.7152 34.75C95.8486 35.4833 94.6319 36.1333 93.0652 36.7C91.4986 37.2333 89.8819 37.5 88.2152 37.5ZM111.607 33.95C111.607 34.8167 111.307 35.55 110.707 36.15C110.141 36.7167 109.424 37 108.557 37C107.724 37 107.024 36.7167 106.457 36.15C105.891 35.55 105.607 34.8167 105.607 33.95V3.05C105.607 2.18333 105.891 1.46666 106.457 0.899997C107.057 0.299999 107.791 -4.76837e-07 108.657 -4.76837e-07C109.524 -4.76837e-07 110.224 0.299999 110.757 0.899997C111.324 1.46666 111.607 2.18333 111.607 3.05V33.95ZM140.484 9.75C141.351 9.75 142.067 10.0333 142.634 10.6C143.201 11.1667 143.484 11.9 143.484 12.8V33.95C143.484 34.8167 143.201 35.55 142.634 36.15C142.067 36.7167 141.351 37 140.484 37C139.617 37 138.901 36.7167 138.334 36.15C137.767 35.55 137.484 34.8167 137.484 33.95V31.5L138.584 31.95C138.584 32.3833 138.351 32.9167 137.884 33.55C137.417 34.15 136.784 34.75 135.984 35.35C135.184 35.95 134.234 36.4667 133.134 36.9C132.067 37.3 130.901 37.5 129.634 37.5C127.334 37.5 125.251 36.9167 123.384 35.75C121.517 34.55 120.034 32.9167 118.934 30.85C117.867 28.75 117.334 26.35 117.334 23.65C117.334 20.9167 117.867 18.5167 118.934 16.45C120.034 14.35 121.501 12.7167 123.334 11.55C125.167 10.35 127.201 9.75 129.434 9.75C130.867 9.75 132.184 9.96667 133.384 10.4C134.584 10.8333 135.617 11.3833 136.484 12.05C137.384 12.7167 138.067 13.4 138.534 14.1C139.034 14.7667 139.284 15.3333 139.284 15.8L137.484 16.45V12.8C137.484 11.9333 137.767 11.2167 138.334 10.65C138.901 10.05 139.617 9.75 140.484 9.75ZM130.384 32C131.851 32 133.134 31.6333 134.234 30.9C135.334 30.1667 136.184 29.1667 136.784 27.9C137.417 26.6333 137.734 25.2167 137.734 23.65C137.734 22.05 137.417 20.6167 136.784 19.35C136.184 18.0833 135.334 17.0833 134.234 16.35C133.134 15.6167 131.851 15.25 130.384 15.25C128.951 15.25 127.684 15.6167 126.584 16.35C125.484 17.0833 124.617 18.0833 123.984 19.35C123.384 20.6167 123.084 22.05 123.084 23.65C123.084 25.2167 123.384 26.6333 123.984 27.9C124.617 29.1667 125.484 30.1667 126.584 30.9C127.684 31.6333 128.951 32 130.384 32ZM164.28 9.75C166.747 9.75 168.614 10.2667 169.88 11.3C171.18 12.3333 172.064 13.7167 172.53 15.45C173.03 17.15 173.28 19.05 173.28 21.15V33.95C173.28 34.8167 172.997 35.55 172.43 36.15C171.864 36.7167 171.147 37 170.28 37C169.414 37 168.697 36.7167 168.13 36.15C167.564 35.55 167.28 34.8167 167.28 33.95V21.15C167.28 20.05 167.13 19.0667 166.83 18.2C166.564 17.3 166.064 16.5833 165.33 16.05C164.597 15.5167 163.547 15.25 162.18 15.25C160.847 15.25 159.714 15.5167 158.78 16.05C157.88 16.5833 157.18 17.3 156.68 18.2C156.214 19.0667 155.98 20.05 155.98 21.15V33.95C155.98 34.8167 155.697 35.55 155.13 36.15C154.564 36.7167 153.847 37 152.98 37C152.114 37 151.397 36.7167 150.83 36.15C150.264 35.55 149.98 34.8167 149.98 33.95V13.3C149.98 12.4333 150.264 11.7167 150.83 11.15C151.397 10.55 152.114 10.25 152.98 10.25C153.847 10.25 154.564 10.55 155.13 11.15C155.697 11.7167 155.98 12.4333 155.98 13.3V15.45L155.23 15.3C155.53 14.7333 155.964 14.1333 156.53 13.5C157.097 12.8333 157.764 12.2167 158.53 11.65C159.297 11.0833 160.164 10.6333 161.13 10.3C162.097 9.93333 163.147 9.75 164.28 9.75ZM186.516 37.5C186.516 39.4 186.149 41.0333 185.416 42.4C184.682 43.8 183.699 44.8833 182.466 45.65C181.232 46.4167 179.849 46.8 178.316 46.8C177.482 46.8 176.816 46.5167 176.316 45.95C175.782 45.4167 175.516 44.7667 175.516 44V43.45C175.516 42.7167 175.766 42.1333 176.266 41.7C176.732 41.2667 177.332 40.9333 178.066 40.7C178.866 40.4333 179.432 40.05 179.766 39.55C180.099 39.0833 180.299 38.5167 180.366 37.85C180.466 37.1833 180.516 36.4833 180.516 35.75V13.3C180.516 12.4333 180.799 11.7167 181.366 11.15C181.932 10.55 182.649 10.25 183.516 10.25C184.382 10.25 185.099 10.55 185.666 11.15C186.232 11.7167 186.516 12.4333 186.516 13.3V37.5ZM183.416 7C182.282 7 181.482 6.81667 181.016 6.45C180.549 6.08333 180.316 5.43333 180.316 4.5V3.55C180.316 2.58333 180.566 1.93333 181.066 1.6C181.599 1.23333 182.399 1.05 183.466 1.05C184.632 1.05 185.449 1.23333 185.916 1.6C186.382 1.96667 186.616 2.61667 186.616 3.55V4.5C186.616 5.46666 186.366 6.13333 185.866 6.5C185.366 6.83333 184.549 7 183.416 7ZM215.435 9.75C216.302 9.75 217.018 10.0333 217.585 10.6C218.152 11.1667 218.435 11.9 218.435 12.8V33.95C218.435 34.8167 218.152 35.55 217.585 36.15C217.018 36.7167 216.302 37 215.435 37C214.568 37 213.852 36.7167 213.285 36.15C212.718 35.55 212.435 34.8167 212.435 33.95V31.5L213.535 31.95C213.535 32.3833 213.302 32.9167 212.835 33.55C212.368 34.15 211.735 34.75 210.935 35.35C210.135 35.95 209.185 36.4667 208.085 36.9C207.018 37.3 205.852 37.5 204.585 37.5C202.285 37.5 200.202 36.9167 198.335 35.75C196.468 34.55 194.985 32.9167 193.885 30.85C192.818 28.75 192.285 26.35 192.285 23.65C192.285 20.9167 192.818 18.5167 193.885 16.45C194.985 14.35 196.452 12.7167 198.285 11.55C200.118 10.35 202.152 9.75 204.385 9.75C205.818 9.75 207.135 9.96667 208.335 10.4C209.535 10.8333 210.568 11.3833 211.435 12.05C212.335 12.7167 213.018 13.4 213.485 14.1C213.985 14.7667 214.235 15.3333 214.235 15.8L212.435 16.45V12.8C212.435 11.9333 212.718 11.2167 213.285 10.65C213.852 10.05 214.568 9.75 215.435 9.75ZM205.335 32C206.802 32 208.085 31.6333 209.185 30.9C210.285 30.1667 211.135 29.1667 211.735 27.9C212.368 26.6333 212.685 25.2167 212.685 23.65C212.685 22.05 212.368 20.6167 211.735 19.35C211.135 18.0833 210.285 17.0833 209.185 16.35C208.085 15.6167 206.802 15.25 205.335 15.25C203.902 15.25 202.635 15.6167 201.535 16.35C200.435 17.0833 199.568 18.0833 198.935 19.35C198.335 20.6167 198.035 22.05 198.035 23.65C198.035 25.2167 198.335 26.6333 198.935 27.9C199.568 29.1667 200.435 30.1667 201.535 30.9C202.635 31.6333 203.902 32 205.335 32Z" fill="#197A09"/>
</svg>
